# xmcd
#
# Track frame offsets: 
#        150
#        18151
#        42061
#        57908
#        78638
#        95520
#        131449
#        156818
#        171737
#        195104
#
# Disc length: 2864 seconds
#
# Revision: 0
# Processed by: cddbd v1.5.2PL0 Copyright (c) Steve Scherf et al.
# Submitted via: ExactAudioCopyFreeDBPlugin 1.0
#
DISCID=770b2e0a
DTITLE=Ian Siegal - Broadside
DYEAR=2009
DGENRE=Blues
TTITLE0=Slaker
TTITLE1=Hard-pressed
TTITLE2=Quarantine
TTITLE3=Kingdom Come
TTITLE4=The Bleeding Cowboy's Lament
TTITLE5=Like Hell
TTITLE6=Stealing From The Queen
TTITLE7=Little Paranoia
TTITLE8=Take A Walk In The Wilderness
TTITLE9=The Ballad Of Big-foot Chester
EXTD=
EXTT0=
EXTT1=
EXTT2=
EXTT3=
EXTT4=
EXTT5=
EXTT6=
EXTT7=
EXTT8=
EXTT9=
PLAYORDER=
